<?xml version="1.0" encoding="utf-8"?>
<!-- Generator: Adobe Illustrator 28.0.0, SVG Export Plug-In . SVG Version: 6.00 Build 0)  -->
<svg version="1.1" id="Layer_1" xmlns="http://www.w3.org/2000/svg" xmlns:xlink="http://www.w3.org/1999/xlink" x="0px" y="0px"
	 viewBox="0 0 1123.11 419.89" style="enable-background:new 0 0 1123.11 419.89;" xml:space="preserve">
<style type="text/css">
	.st0{fill:#003375;}
</style>
<g>
	<g>
		<polygon class="st0" points="22.6,142.32 22.6,203.07 83.36,203.07 144.12,263.83 144.12,203.07 204.87,203.07 204.87,142.32 		
			"/>
		<polygon class="st0" points="83.36,307.89 144.12,307.89 83.36,247.13 		"/>
	</g>
	<g>
		<g>
			<g>
				<path d="M241.97,142.84h3.96l12.61,18.89l12.61-18.89h3.96v34.62h-3.91v-28.04l-12.61,18.54h-0.2l-12.61-18.5v27.99h-3.81
					V142.84z"/>
				<path d="M296.71,142.59h3.66l15.77,34.87h-4.2l-4.05-9.15h-18.84l-4.1,9.15h-4L296.71,142.59z M306.35,164.75l-7.86-17.6
					l-7.91,17.6H306.35z"/>
				<path d="M321.98,142.84h3.91v20.67l19.88-20.67h5.04l-14.83,15.13l15.48,19.49h-4.9l-13.3-16.77l-7.37,7.47v9.3h-3.91V142.84z"
					/>
				<path d="M358.52,142.84h25.02v3.56h-21.12v11.82h18.89v3.56h-18.89v12.12h21.36v3.56h-25.27V142.84z"/>
				<path d="M410.45,142.84h3.66l21.81,27.74v-27.74h3.81v34.62h-3.12l-22.35-28.39v28.39h-3.81V142.84z"/>
				<path d="M449.51,142.84h25.02v3.56h-21.12v11.82h18.89v3.56h-18.89v12.12h21.36v3.56h-25.27V142.84z"/>
				<path d="M480.97,142.84h4.25l9.89,28.83l9.49-28.93h3.21l9.49,28.93l9.89-28.83h4.1l-12.36,34.87h-3.31l-9.5-28.09l-9.54,28.09
					h-3.26L480.97,142.84z"/>
				<path d="M554.9,172.41l2.42-2.87c3.61,3.26,7.07,4.9,11.87,4.9c4.65,0,7.71-2.47,7.71-5.89v-0.1c0-3.21-1.73-5.04-9-6.58
					c-7.96-1.73-11.62-4.3-11.62-9.99v-0.1c0-5.44,4.8-9.45,11.38-9.45c5.04,0,8.66,1.43,12.17,4.25l-2.28,3.02
					c-3.21-2.62-6.43-3.76-9.99-3.76c-4.5,0-7.37,2.47-7.37,5.59v0.1c0,3.26,1.78,5.09,9.4,6.72c7.71,1.68,11.27,4.5,11.27,9.79v0.1
					c0,5.93-4.95,9.79-11.82,9.79C563.55,177.95,559.05,176.12,554.9,172.41z"/>
				<path d="M596.98,146.45h-11.62v-3.61h27.2v3.61h-11.62v31.01h-3.96V146.45z"/>
				<path d="M626.75,142.59h3.66l15.77,34.87h-4.2l-4.06-9.15h-18.84l-4.11,9.15h-4L626.75,142.59z M636.39,164.75l-7.86-17.6
					l-7.91,17.6H636.39z"/>
				<path d="M652.02,142.84h3.66l21.81,27.74v-27.74h3.81v34.62h-3.11l-22.35-28.39v28.39h-3.81V142.84z"/>
				<path d="M691.09,142.84h12.02c10.88,0,18.4,7.47,18.4,17.21v0.1c0,9.74-7.51,17.31-18.4,17.31h-12.02V142.84z M694.99,146.45
					v27.4h8.11c8.75,0,14.34-5.93,14.34-13.6v-0.1c0-7.66-5.59-13.7-14.34-13.7H694.99z"/>
				<path d="M739.6,142.59h3.66l15.77,34.87h-4.2l-4.05-9.15h-18.84l-4.1,9.15h-4.01L739.6,142.59z M749.24,164.75l-7.86-17.6
					l-7.91,17.6H749.24z"/>
				<path d="M765.86,142.84h14.88c4.25,0,7.67,1.29,9.84,3.46c1.68,1.68,2.67,4.1,2.67,6.82v0.1c0,5.74-3.96,9.1-9.4,10.09
					l10.63,14.14h-4.8l-10.04-13.45h-9.89v13.45h-3.91V142.84z M780.4,160.5c5.19,0,8.9-2.67,8.9-7.12v-0.1
					c0-4.25-3.26-6.82-8.85-6.82h-10.68v14.05H780.4z"/>
				<path d="M802.6,142.84h12.02c10.88,0,18.4,7.47,18.4,17.21v0.1c0,9.74-7.52,17.31-18.4,17.31H802.6V142.84z M806.51,146.45v27.4
					h8.11c8.75,0,14.34-5.93,14.34-13.6v-0.1c0-7.66-5.59-13.7-14.34-13.7H806.51z"/>
				<path d="M838.01,172.41l2.42-2.87c3.61,3.26,7.07,4.9,11.87,4.9c4.65,0,7.72-2.47,7.72-5.89v-0.1c0-3.21-1.73-5.04-9-6.58
					c-7.96-1.73-11.62-4.3-11.62-9.99v-0.1c0-5.44,4.8-9.45,11.38-9.45c5.04,0,8.65,1.43,12.16,4.25l-2.27,3.02
					c-3.22-2.62-6.43-3.76-9.99-3.76c-4.5,0-7.37,2.47-7.37,5.59v0.1c0,3.26,1.78,5.09,9.4,6.72c7.71,1.68,11.27,4.5,11.27,9.79v0.1
					c0,5.93-4.95,9.79-11.82,9.79C846.66,177.95,842.16,176.12,838.01,172.41z"/>
				<path d="M869.86,172.27h4.55v5.19h-4.55V172.27z"/>
			</g>
		</g>
		<path d="M334.27,226.27v-7.29h-42.51v-9.85h-7.29v9.85h-42.51v7.29h42.51v8.52h-35.22v38.9h29.12l-34.92,26.81l4.44,5.78
			l36.58-28.09v28.09h7.29v-28.09l36.58,28.09l4.44-5.78l-34.92-26.81h29.12v-38.9h-35.22v-8.52H334.27z M256.54,242.07h27.93v8.52
			h-27.93V242.07z M256.54,257.88h27.93v8.52h-27.93V257.88z M319.69,266.39h-27.93v-8.52h27.93V266.39z M319.69,242.07v8.52h-27.93
			v-8.52H319.69z"/>
		<g>
			<path d="M545.13,306.27h-79.35v-90.68h79.35V306.27z M473.07,298.98h64.77v-76.1h-64.77V298.98z"/>
			<polygon points="530.55,237.3 530.55,230.01 480.35,230.01 480.35,237.3 501.81,237.3 501.81,257.21 482.9,257.21 482.9,264.5 
				501.81,264.5 501.81,284.41 480.35,284.41 480.35,291.7 530.55,291.7 530.55,284.41 509.1,284.41 509.1,264.5 528.01,264.5 
				528.01,257.21 509.1,257.21 509.1,237.3 			"/>
			<rect x="517.86" y="267.68" transform="matrix(0.9075 -0.4201 0.4201 0.9075 -67.047 244.4836)" width="7.29" height="13.55"/>
		</g>
		<g>
			<polygon points="649.52,230.01 611.35,230.01 611.35,208.81 604.07,208.81 604.07,230.01 565.9,230.01 565.9,237.3 649.52,237.3 
							"/>
			<rect x="562.59" y="298.98" width="90.24" height="7.29"/>
			<rect x="584.35" y="244.56" width="7.29" height="47.14"/>
			<rect x="623.78" y="244.56" width="7.29" height="47.14"/>
		</g>
		<polygon points="760.56,237.3 760.56,230.01 718.05,230.01 718.05,208.81 718.04,208.81 710.76,208.81 710.75,208.81 
			710.75,230.01 668.25,230.01 668.25,237.3 710.75,237.3 710.75,250.37 669.55,301.71 675.24,306.27 714.4,257.47 753.56,306.27 
			759.25,301.71 718.05,250.37 718.05,237.3 		"/>
		<g>
			<polygon points="783.46,234.79 852.86,234.79 852.86,250.3 860.15,250.3 860.15,227.5 844.09,227.5 853.2,212.54 846.94,208.81 
				835.56,227.5 776.17,227.5 776.17,250.3 783.46,250.3 			"/>
			<rect x="787.55" y="209.62" transform="matrix(0.8274 -0.5616 0.5616 0.8274 14.7926 481.7678)" width="7.29" height="14.4"/>
			<rect x="812.17" y="209.62" transform="matrix(0.8274 -0.5616 0.5616 0.8274 19.0429 495.5973)" width="7.29" height="14.4"/>
			<path d="M821.8,273.01v-3.93l23.77-16.33v-7.29h-54.83v7.29h41.89h0.07l-18.19,12.5v7.76h-41.99v7.29h41.98v16.32
				c0,0.02,0.03,1.87-0.95,2.94c-0.64,0.69-1.75,1.04-3.29,1.04h-6.4v7.29h6.4c4.55,0,7.21-1.84,8.64-3.38
				c2.92-3.15,2.93-7.27,2.89-8.27V280.3h0.01h41.99v-7.29H821.8z"/>
		</g>
		<g>
			<rect x="354.94" y="218.98" width="18.88" height="7.29"/>
			<rect x="354.94" y="246.01" width="18.88" height="7.29"/>
			<rect x="344.95" y="285.05" transform="matrix(0.4971 -0.8677 0.8677 0.4971 -67.883 460.2636)" width="36.34" height="7.29"/>
			<polygon points="442.18,218.98 387.67,218.98 389.81,208.83 382.68,207.32 376.75,235.42 383.88,236.93 386.13,226.27 
				442.18,226.27 			"/>
			<path d="M447.89,261.33h-9.92V237.3h-51.68v24.03h-10.5v7.29h10.5v24.03h44.39l0,0v3.97c0,0.02,0.04,1.87-0.95,2.94
				c-0.64,0.69-1.75,1.04-3.29,1.04h-6.4v7.29h6.4c4.55,0,7.21-1.84,8.64-3.38c2.65-2.86,2.9-6.5,2.89-7.89h0v-28.01h9.92V261.33z
				 M430.68,244.58v16.74h-15.2v-16.74H430.68z M393.58,244.58h14.62v16.74h-14.62V244.58z M393.58,285.36v-16.74h14.62v16.74
				H393.58z M430.68,285.36h-15.2v-16.74h15.2V285.36z"/>
		</g>
		<g>
			<polygon points="927.14,254.86 927.14,258.84 933.97,258.84 933.97,243.12 927.14,243.12 927.14,248.08 917.39,248.39 
				933.85,227.32 928.47,223.12 921.65,231.85 917.46,228.57 928.73,213.73 923.29,209.6 907.96,229.79 917.44,237.23 907.8,249.57 
				910.55,255.19 			"/>
			<polygon points="966.67,254.86 966.67,258.84 973.5,258.84 973.5,243.12 966.67,243.12 966.67,248.08 956.91,248.39 
				973.38,227.32 968,223.12 961.17,231.85 956.98,228.57 968.26,213.73 962.82,209.6 947.48,229.79 956.97,237.23 947.33,249.57 
				950.07,255.19 			"/>
			<path d="M968.96,293.39l-3.9,4.9l-0.18-0.18c-2.36-2.32-4.56-5.08-6.54-8.22l-0.09-0.14l0.1-0.13c2.53-3.16,4.74-6.62,6.58-10.3
				c-1.83-0.87-4.59-2.19-6.16-2.93c-1.12,2.24-2.41,4.41-3.84,6.45l-0.23,0.33l-0.17-0.37c-1.26-2.73-2.43-5.73-3.48-8.9l-0.1-0.31
				h22.59v-6.82h-7.01l-5.94-9.11l-5.72,3.72l3.51,5.39h-9.4l-0.05-0.18c-4.75-18.59-5.68-40.25-5.82-56.4h-6.82
				c0.13,15.87,1.05,37.25,5.66,56.29l0.07,0.29h-29.64v41.11h6.82v-20.08l12.56,6.83l3.3-5.97l-15.87-8.62v-6.44h24.68l0.05,0.16
				c1.68,5.5,3.69,10.53,5.97,14.95l0.08,0.15l-0.12,0.12c-5,5.13-11.2,9.27-18.95,12.66l2.71,6.26c7.82-3.41,14.26-7.6,19.7-12.79
				l0.2-0.19l0.15,0.23c2.87,4.27,6.12,7.88,9.68,10.74l2.67,2.14l8.27-10.38L968.96,293.39z"/>
			<polygon points="881.85,237.3 881.85,230.47 891.59,230.47 891.59,210.89 898.42,210.89 898.42,230.47 906.22,230.47 
				906.22,237.3 898.42,237.3 898.42,242.12 908.58,264.24 902.38,267.1 898.42,258.49 898.42,307.89 891.59,307.89 891.59,258.49 
				881.83,279.7 875.63,276.84 891.57,242.22 891.57,237.3 			"/>
		</g>
		<g>
			<path d="M1083.18,290.66v-6.82h-6.84l0-25.91h-21.45v-7.53h23.93v-6.82h-11.89v-6.14h8.54v-6.83h-8.54v-6.14h11.89v-6.82h-11.89
				v-6.75h-6.82v6.75h-17.03v-6.75h-6.82v6.75h-13.41v6.82h13.41v6.14h-10.05v6.83h10.05v6.14h-13.41v6.82h25.22v7.53h-21.22v25.91
				h-6.83v6.82h6.83v17.23h6.82v-17.23h35.83l0.01,6.18c0,0,0.04,1.96-1.02,3.1c-0.69,0.74-1.85,1.12-3.46,1.12h-6.16v6.83h6.16
				c4.47,0,7.07-1.8,8.47-3.3c2.82-3.05,2.87-6.97,2.82-8.1l0-5.83H1083.18z M1048.07,283.84h-14.4v-6.14h14.4V283.84z
				 M1048.07,270.87h-14.4v-6.11h14.4V270.87z M1043.08,224.46h17.03v6.14h-17.03V224.46z M1043.08,243.58v-6.14h17.03v6.14H1043.08
				z M1069.51,283.84h-14.61v-6.14h14.61V283.84z M1069.51,270.87h-14.61v-6.11h14.61V270.87z"/>
			<polygon points="992.49,237.3 992.49,230.47 1002.24,230.47 1002.24,210.89 1009.06,210.89 1009.06,230.47 1016.86,230.47 
				1016.86,237.3 1009.06,237.3 1009.06,242.12 1019.22,264.24 1013.03,267.1 1009.06,258.49 1009.06,307.89 1002.24,307.89 
				1002.24,258.49 992.47,279.7 986.27,276.84 1002.22,242.22 1002.22,237.3 			"/>
		</g>
	</g>
</g>
</svg>
