<?xml version="1.0" standalone="no"?>
<!DOCTYPE svg PUBLIC "-//W3C//DTD SVG 20010904//EN"
 "http://www.w3.org/TR/2001/REC-SVG-20010904/DTD/svg10.dtd">
<svg version="1.0" xmlns="http://www.w3.org/2000/svg"
 width="1024.000000pt" height="1024.000000pt" viewBox="0 0 1024.000000 1024.000000"
 preserveAspectRatio="xMidYMid meet">
<metadata>
Created by potrace 1.14, written by Peter Selinger 2001-2017
</metadata>
<g transform="translate(0.000000,1024.000000) scale(0.100000,-0.100000)"
fill="#000000" stroke="none">
<path d="M1195 8680 l-150 -5 0 -1285 c-1 -707 0 -1290 2 -1295 2 -7 441 -10
1298 -10 l1295 0 450 -450 c248 -248 458 -458 468 -467 9 -9 57 -57 106 -107
49 -50 94 -91 99 -91 6 0 8 -2 5 -5 -2 -3 38 -47 89 -98 52 -50 100 -97 106
-104 7 -6 106 -106 222 -222 115 -116 213 -211 219 -211 5 0 7 -2 4 -5 -2 -3
38 -47 89 -98 117 -114 92 -89 258 -257 77 -78 157 -157 178 -176 20 -19 36
-34 34 -34 -3 0 251 -254 266 -267 1 -1 2 582 2 1295 l0 1297 1298 0 1297 0 0
1297 0 1298 -777 0 c-428 0 -2112 1 -3743 3 -1631 1 -3032 0 -3115 -3z"/>
<path d="M3639 3359 c-1 -464 -1 -851 0 -860 1 -8 3 -213 4 -454 l2 -439 1288
-1 c709 0 1290 2 1292 5 1 3 -579 587 -1291 1299 l-1294 1294 -1 -844z"/>
</g>
</svg>
